<svg width="96" height="76" viewBox="0 0 96 76" fill="none" xmlns="http://www.w3.org/2000/svg">
<path d="M92.4 28.5H72V3.5625C72 1.59422 70.389 0 68.4 0H46.8C44.811 0 43.2 1.59422 43.2 3.5625V14.25H33.6V2.375C33.6 1.06281 32.526 0 31.2 0H28.8C27.474 0 26.4 1.06281 26.4 2.375V14.25H16.8V2.375C16.8 1.06281 15.726 0 14.4 0H12C10.674 0 9.6 1.06281 9.6 2.375V14.25H3.6C1.611 14.25 0 15.8442 0 17.8125V71.25C0 73.8729 2.1495 76 4.8 76H91.2C93.8505 76 96 73.8729 96 71.25V32.0625C96 30.0942 94.3875 28.5 92.4 28.5ZM19.2 59.9688C19.2 60.9529 18.3945 61.75 17.4 61.75H11.4C10.4055 61.75 9.6 60.9529 9.6 59.9688V54.0312C9.6 53.0471 10.4055 52.25 11.4 52.25H17.4C18.3945 52.25 19.2 53.0471 19.2 54.0312V59.9688ZM19.2 45.7188C19.2 46.7029 18.3945 47.5 17.4 47.5H11.4C10.4055 47.5 9.6 46.7029 9.6 45.7188V39.7812C9.6 38.7971 10.4055 38 11.4 38H17.4C18.3945 38 19.2 38.7971 19.2 39.7812V45.7188ZM19.2 31.4688C19.2 32.4529 18.3945 33.25 17.4 33.25H11.4C10.4055 33.25 9.6 32.4529 9.6 31.4688V25.5312C9.6 24.5471 10.4055 23.75 11.4 23.75H17.4C18.3945 23.75 19.2 24.5471 19.2 25.5312V31.4688ZM38.4 59.9688C38.4 60.9529 37.5945 61.75 36.6 61.75H30.6C29.6055 61.75 28.8 60.9529 28.8 59.9688V54.0312C28.8 53.0471 29.6055 52.25 30.6 52.25H36.6C37.5945 52.25 38.4 53.0471 38.4 54.0312V59.9688ZM38.4 45.7188C38.4 46.7029 37.5945 47.5 36.6 47.5H30.6C29.6055 47.5 28.8 46.7029 28.8 45.7188V39.7812C28.8 38.7971 29.6055 38 30.6 38H36.6C37.5945 38 38.4 38.7971 38.4 39.7812V45.7188ZM38.4 31.4688C38.4 32.4529 37.5945 33.25 36.6 33.25H30.6C29.6055 33.25 28.8 32.4529 28.8 31.4688V25.5312C28.8 24.5471 29.6055 23.75 30.6 23.75H36.6C37.5945 23.75 38.4 24.5471 38.4 25.5312V31.4688ZM62.4 45.7188C62.4 46.7029 61.5945 47.5 60.6 47.5H54.6C53.6055 47.5 52.8 46.7029 52.8 45.7188V39.7812C52.8 38.7971 53.6055 38 54.6 38H60.6C61.5945 38 62.4 38.7971 62.4 39.7812V45.7188ZM62.4 31.4688C62.4 32.4529 61.5945 33.25 60.6 33.25H54.6C53.6055 33.25 52.8 32.4529 52.8 31.4688V25.5312C52.8 24.5471 53.6055 23.75 54.6 23.75H60.6C61.5945 23.75 62.4 24.5471 62.4 25.5312V31.4688ZM62.4 17.2188C62.4 18.2029 61.5945 19 60.6 19H54.6C53.6055 19 52.8 18.2029 52.8 17.2188V11.2812C52.8 10.2971 53.6055 9.5 54.6 9.5H60.6C61.5945 9.5 62.4 10.2971 62.4 11.2812V17.2188ZM86.4 59.9688C86.4 60.9529 85.5945 61.75 84.6 61.75H78.6C77.6055 61.75 76.8 60.9529 76.8 59.9688V54.0312C76.8 53.0471 77.6055 52.25 78.6 52.25H84.6C85.5945 52.25 86.4 53.0471 86.4 54.0312V59.9688ZM86.4 45.7188C86.4 46.7029 85.5945 47.5 84.6 47.5H78.6C77.6055 47.5 76.8 46.7029 76.8 45.7188V39.7812C76.8 38.7971 77.6055 38 78.6 38H84.6C85.5945 38 86.4 38.7971 86.4 39.7812V45.7188Z" fill="white"/>
</svg>
