<svg width="121" height="97" viewBox="0 0 121 97" fill="none" xmlns="http://www.w3.org/2000/svg">
<g clip-path="url(#clip0)">
<path d="M18.15 87.9051V93.9676C18.15 95.6424 19.5037 96.9989 21.175 96.9989H63.525C65.1963 96.9989 66.55 95.6424 66.55 93.9676V29.0326C67.4121 28.6536 68.2364 28.2084 69.0059 27.6836L95.8623 36.7073C97.4466 37.2397 99.1614 36.3833 99.6927 34.7976L101.615 29.0496C102.147 27.462 101.292 25.7436 99.7097 25.2113L75.434 17.0553C75.5135 16.4263 75.625 15.8049 75.625 15.1551C75.625 6.78507 68.8528 -0.00114351 60.5 -0.00114351C54.8867 -0.00114351 50.0448 3.09831 47.4339 7.64708L25.1378 0.156103C23.5534 -0.376261 21.8386 0.480067 21.3073 2.06579L19.3846 7.8138C18.8533 9.40142 19.7079 11.1198 21.2903 11.6521L46.2466 20.0373C47.623 24.0632 50.5875 27.3388 54.4481 29.0307V84.8739H21.175C19.5037 84.8739 18.15 86.2303 18.15 87.9051ZM0 57.5926C0 65.9627 10.8352 72.7489 24.2 72.7489C37.5648 72.7489 48.4 65.9627 48.4 57.5926H48.3962C48.3962 54.6239 48.7895 56.2191 32.3165 23.205C28.9738 16.5059 19.4186 16.5192 16.0817 23.205C-0.249562 55.9387 0.00378125 54.5273 0.00378125 57.5926H0ZM10.5875 54.5614L24.2 27.2801L37.8125 54.5614H10.5875ZM72.6038 81.8426H72.6C72.6 90.2127 83.4352 96.9989 96.8 96.9989C110.165 96.9989 121 90.2127 121 81.8426H120.996C120.996 78.8739 121.389 80.4691 104.916 47.455C101.574 40.7559 92.0186 40.7692 88.6817 47.455C72.3504 80.1887 72.6038 78.7773 72.6038 81.8426ZM83.1875 78.8114L96.8 51.5301L110.413 78.8114H83.1875Z" fill="black"/>
</g>
<defs>
<clipPath id="clip0">
<rect width="121" height="97" fill="white"/>
</clipPath>
</defs>
</svg>
