<svg width="65" height="65" viewBox="0 0 65 65" fill="none" xmlns="http://www.w3.org/2000/svg">
<g clip-path="url(#clip0)">
<path d="M62.638 3.12241L49.4349 0.0755306C48.0003 -0.254548 46.5277 0.494476 45.9437 1.84018L39.85 16.0589C39.3167 17.3031 39.6722 18.763 40.7259 19.6136L48.4193 25.9105C43.849 35.6478 35.8636 43.7474 25.9232 48.4066L19.6263 40.7132C18.763 39.6595 17.3158 39.304 16.0716 39.8372L1.85288 45.931C0.494486 46.5277 -0.254537 48.0003 0.0755411 49.4349L3.12242 62.638C3.4398 64.0091 4.65855 64.9994 6.09312 64.9994C38.6058 64.9994 64.9994 38.6566 64.9994 6.09311C64.9994 4.67123 64.0218 3.43979 62.638 3.12241Z" fill="white"/>
</g>
<defs>
<clipPath id="clip0">
<rect width="65" height="65" fill="white"/>
</clipPath>
</defs>
</svg>
