<svg width="74" height="59" viewBox="0 0 74 59" fill="none" xmlns="http://www.w3.org/2000/svg">
<g clip-path="url(#clip0)">
<path d="M22.2 18.4375H25.9V3.68753H22.2C18.1127 3.68753 14.8 6.989 14.8 11.0625C14.8 15.1361 18.1127 18.4375 22.2 18.4375ZM0 47.9375C0 52.0111 3.31266 55.3125 7.4 55.3125H11.1V40.5625H7.4C3.31266 40.5625 0 43.864 0 47.9375ZM39.0188 33.1875C34.9823 33.1875 30.2128 34.6994 26.9094 36.875C24.0431 38.7626 21.7618 40.5625 14.8 40.5625V55.3125L21.4519 57.1528C24.4824 57.9917 27.5812 58.6647 30.7377 58.8871C34.5175 59.1533 38.3228 58.9643 42.0204 58.1726C54.6791 55.4623 59.2 49.4609 59.2 44.25C59.2 36.875 49.4667 33.1875 39.0188 33.1875ZM56.8204 0.828566C53.1228 0.0369055 49.3175 -0.153231 45.5378 0.114113C42.3812 0.336515 39.2824 1.00948 36.2519 1.84724L29.6 3.68753V18.4375C36.5606 18.4375 38.8431 20.2375 41.7094 22.125C45.0128 24.3007 49.7823 25.8125 53.8188 25.8125C64.2667 25.8125 74 22.125 74 14.75C74 9.53913 69.4791 3.53773 56.8204 0.828566Z" fill="white"/>
</g>
<defs>
<clipPath id="clip0">
<rect width="74" height="59" fill="white"/>
</clipPath>
</defs>
</svg>
